# xmcd CD database file
#
# Track frame offsets:
#	150
#	20248
#	40326
#	56206
#	89847
#	105164
#	125757
#	155855
#	193546
#	211503
#	247057
#	268415
#	283143
#
# Disc length: 4004 seconds
#
# Revision: 0
# Processed by: cddbd v1.5.1PL2 Copyright (c) Steve Scherf et al.
# Submitted via: CDex 1.51
#
DISCID=ce0fa20d
DTITLE=Bill Henry and the Shouters - Goodbye
DYEAR=1997
DGENRE=Blues
TTITLE0=Walkin' Blues
TTITLE1=Got Love If You Want It
TTITLE2=It Should Have Been Me
TTITLE3=Beat Me Daddy, Eight To The Bar
TTITLE4=She Wants To Sell My Monkey
TTITLE5=Big Fat Mama
TTITLE6=Early In The Morning
TTITLE7=It's A Secret
TTITLE8=Last Meal
TTITLE9=Caldonia
TTITLE10=Rainy Mood
TTITLE11=Can't Love Anymore
TTITLE12=Heal The Pain
EXTD=YEAR: 1997
EXTT0=
EXTT1=
EXTT2=
EXTT3=
EXTT4=
EXTT5=
EXTT6=
EXTT7=
EXTT8=
EXTT9=
EXTT10=
EXTT11=
EXTT12=
PLAYORDER=
